<svg xmlns="http://www.w3.org/2000/svg" version="1.1" xmlns:xlink="http://www.w3.org/1999/xlink" xmlns:svgjs="http://svgjs.dev/svgjs" width="1440" height="1540" preserveAspectRatio="none" viewBox="0 0 1440 1540"><g mask="url(&quot;#SvgjsMask8130&quot;)" fill="none"><rect width="1440" height="1540" x="0" y="0" fill="#0e2a47"></rect><path d="M1303.79 411.72999999999996 L1276.02 637.3499999999999L1172.0089256898577 406.6439256898577z" stroke="#e73635" stroke-width="1" stroke-dasharray="3, 3"></path><path d="M834.35 791.53L832.48 804.2 819.71 805.16 817.84 817.82 805.07 818.78 803.2 831.45 790.43 832.41" stroke="#e73635" stroke-width="1" stroke-dasharray="3, 3"></path><path d="M1333.6 468.91L1324.42 477.83 1313.69 470.83 1304.51 479.75 1293.79 472.74 1284.6 481.67 1273.88 474.66M1332.84 460.95L1323.65 469.87 1312.93 462.86 1303.74 471.79 1293.02 464.78 1283.83 473.7 1273.11 466.7M1332.07 452.98L1322.88 461.9 1312.16 454.9 1302.97 463.82 1292.25 456.82 1283.07 465.74 1272.35 458.73" stroke="#e73635" stroke-width="1.14"></path><rect width="250.56" height="250.56" clip-path="url(&quot;#SvgjsClipPath8131&quot;)" x="106.33" y="268.46" fill="url(&quot;#SvgjsPattern8132&quot;)" transform="rotate(270.38, 231.61, 393.74)"></rect><rect width="679.32" height="679.32" clip-path="url(&quot;#SvgjsClipPath8133&quot;)" x="673.11" y="1180.97" fill="url(&quot;#SvgjsPattern8134&quot;)" transform="rotate(289.3, 1012.77, 1520.63)"></rect></g><defs><mask id="SvgjsMask8130"><rect width="1440" height="1540" fill="#ffffff"></rect></mask><pattern x="0" y="0" width="250.56" height="13.92" patternUnits="userSpaceOnUse" id="SvgjsPattern8132"><rect width="250.56" height="6.96" x="0" y="0" fill="#e73635"></rect><rect width="250.56" height="6.96" x="0" y="6.96" fill="rgba(0, 0, 0, 0)"></rect></pattern><clipPath id="SvgjsClipPath8131"><circle r="62.64" cx="231.61" cy="393.74"></circle></clipPath><pattern x="0" y="0" width="6.66" height="6.66" patternUnits="userSpaceOnUse" id="SvgjsPattern8134"><path d="M0 6.66L3.33 0L6.66 6.66" stroke="#d3b714" fill="none"></path></pattern><clipPath id="SvgjsClipPath8133"><circle r="169.83" cx="1012.77" cy="1520.63"></circle></clipPath></defs></svg>