<svg xmlns="http://www.w3.org/2000/svg" version="1.1" xmlns:xlink="http://www.w3.org/1999/xlink" xmlns:svgjs="http://svgjs.dev/svgjs" viewBox="0 0 800 800"><defs><linearGradient x1="50%" y1="0%" x2="50%" y2="100%" id="ffflurry-grad" gradientTransform="rotate(270)"><stop stop-color="#043040" stop-opacity="1" offset="0%"></stop><stop stop-color="hsl(180, 69%, 40%)" stop-opacity="1" offset="45%"></stop><stop stop-color="hsl(180, 69%, 60%)" stop-opacity="1" offset="100%"></stop></linearGradient></defs><rect width="100%" height="100%" fill="#043040"></rect><g fill="url(#ffflurry-grad)"><rect width="171" height="3" x="237.5" y="178.5" rx="1.5" transform="rotate(45, 323, 180)" opacity="0.25"></rect><rect width="503" height="3" x="422.5" y="433.5" rx="1.5" transform="rotate(45, 674, 435)" opacity="0.42"></rect><rect width="201" height="3" x="660.5" y="200.5" rx="1.5" transform="rotate(45, 761, 202)" opacity="0.67"></rect><rect width="42" height="3" x="474" y="141.5" rx="1.5" transform="rotate(45, 495, 143)" opacity="0.43"></rect><rect width="57" height="3" x="268.5" y="29.5" rx="1.5" transform="rotate(45, 297, 31)" opacity="0.38"></rect><rect width="65" height="3" x="633.5" y="140.5" rx="1.5" transform="rotate(45, 666, 142)" opacity="0.54"></rect><rect width="378" height="3" x="315" y="225.5" rx="1.5" transform="rotate(45, 504, 227)" opacity="0.20"></rect><rect width="462" height="3" x="120" y="700.5" rx="1.5" transform="rotate(45, 351, 702)" opacity="0.29"></rect><rect width="312" height="3" x="315" y="464.5" rx="1.5" transform="rotate(45, 471, 466)" opacity="0.66"></rect><rect width="302" height="3" x="544" y="530.5" rx="1.5" transform="rotate(45, 695, 532)" opacity="0.83"></rect><rect width="375" height="3" x="206.5" y="218.5" rx="1.5" transform="rotate(45, 394, 220)" opacity="0.82"></rect><rect width="538" height="3" x="141" y="134.5" rx="1.5" transform="rotate(45, 410, 136)" opacity="0.66"></rect><rect width="605" height="3" x="-176.5" y="221.5" rx="1.5" transform="rotate(45, 126, 223)" opacity="0.68"></rect><rect width="195" height="3" x="615.5" y="699.5" rx="1.5" transform="rotate(45, 713, 701)" opacity="0.14"></rect><rect width="386" height="3" x="328" y="679.5" rx="1.5" transform="rotate(45, 521, 681)" opacity="0.91"></rect><rect width="628" height="3" x="-187" y="562.5" rx="1.5" transform="rotate(45, 127, 564)" opacity="0.22"></rect><rect width="424" height="3" x="-171" y="599.5" rx="1.5" transform="rotate(45, 41, 601)" opacity="0.14"></rect><rect width="241" height="3" x="600.5" y="771.5" rx="1.5" transform="rotate(45, 721, 773)" opacity="0.89"></rect><rect width="421" height="3" x="384.5" y="668.5" rx="1.5" transform="rotate(45, 595, 670)" opacity="0.41"></rect><rect width="379" height="3" x="458.5" y="342.5" rx="1.5" transform="rotate(45, 648, 344)" opacity="0.74"></rect><rect width="173" height="3" x="226.5" y="589.5" rx="1.5" transform="rotate(45, 313, 591)" opacity="0.78"></rect><rect width="331" height="3" x="506.5" y="647.5" rx="1.5" transform="rotate(45, 672, 649)" opacity="0.24"></rect><rect width="358" height="3" x="25" y="602.5" rx="1.5" transform="rotate(45, 204, 604)" opacity="0.37"></rect><rect width="42" height="3" x="528" y="507.5" rx="1.5" transform="rotate(45, 549, 509)" opacity="0.94"></rect><rect width="250" height="3" x="444" y="763.5" rx="1.5" transform="rotate(45, 569, 765)" opacity="0.38"></rect><rect width="247" height="3" x="61.5" y="30.5" rx="1.5" transform="rotate(45, 185, 32)" opacity="0.48"></rect><rect width="364" height="3" x="195" y="404.5" rx="1.5" transform="rotate(45, 377, 406)" opacity="0.51"></rect><rect width="266" height="3" x="394" y="387.5" rx="1.5" transform="rotate(45, 527, 389)" opacity="0.24"></rect><rect width="362" height="3" x="317" y="575.5" rx="1.5" transform="rotate(45, 498, 577)" opacity="0.57"></rect><rect width="202" height="3" x="520" y="524.5" rx="1.5" transform="rotate(45, 621, 526)" opacity="0.59"></rect><rect width="258" height="3" x="647" y="64.5" rx="1.5" transform="rotate(45, 776, 66)" opacity="0.49"></rect><rect width="618" height="3" x="-124" y="446.5" rx="1.5" transform="rotate(45, 185, 448)" opacity="0.45"></rect><rect width="340" height="3" x="160" y="97.5" rx="1.5" transform="rotate(45, 330, 99)" opacity="0.55"></rect><rect width="485" height="3" x="-56.5" y="294.5" rx="1.5" transform="rotate(45, 186, 296)" opacity="0.45"></rect><rect width="241" height="3" x="305.5" y="69.5" rx="1.5" transform="rotate(45, 426, 71)" opacity="0.11"></rect><rect width="157" height="3" x="511.5" y="434.5" rx="1.5" transform="rotate(45, 590, 436)" opacity="0.46"></rect><rect width="382" height="3" x="493" y="239.5" rx="1.5" transform="rotate(45, 684, 241)" opacity="0.91"></rect><rect width="366" height="3" x="553" y="633.5" rx="1.5" transform="rotate(45, 736, 635)" opacity="0.84"></rect><rect width="117" height="3" x="-5.5" y="451.5" rx="1.5" transform="rotate(45, 53, 453)" opacity="0.68"></rect><rect width="31" height="3" x="760.5" y="716.5" rx="1.5" transform="rotate(45, 776, 718)" opacity="0.39"></rect><rect width="312" height="3" x="239" y="299.5" rx="1.5" transform="rotate(45, 395, 301)" opacity="0.81"></rect><rect width="148" height="3" x="522" y="188.5" rx="1.5" transform="rotate(45, 596, 190)" opacity="0.69"></rect><rect width="214" height="3" x="537" y="731.5" rx="1.5" transform="rotate(45, 644, 733)" opacity="0.12"></rect><rect width="216" height="3" x="177" y="308.5" rx="1.5" transform="rotate(45, 285, 310)" opacity="0.10"></rect><rect width="638" height="3" x="-282" y="253.5" rx="1.5" transform="rotate(45, 37, 255)" opacity="0.15"></rect><rect width="165" height="3" x="392.5" y="722.5" rx="1.5" transform="rotate(45, 475, 724)" opacity="0.10"></rect><rect width="342" height="3" x="78" y="99.5" rx="1.5" transform="rotate(45, 249, 101)" opacity="0.50"></rect><rect width="223" height="3" x="483.5" y="62.5" rx="1.5" transform="rotate(45, 595, 64)" opacity="0.72"></rect><rect width="484" height="3" x="-182" y="142.5" rx="1.5" transform="rotate(45, 60, 144)" opacity="0.32"></rect><rect width="447" height="3" x="38.5" y="762.5" rx="1.5" transform="rotate(45, 262, 764)" opacity="0.97"></rect><rect width="330" height="3" x="-82" y="732.5" rx="1.5" transform="rotate(45, 83, 734)" opacity="0.18"></rect><rect width="599" height="3" x="-76.5" y="701.5" rx="1.5" transform="rotate(45, 223, 703)" opacity="0.67"></rect><rect width="362" height="3" x="102" y="450.5" rx="1.5" transform="rotate(45, 283, 452)" opacity="0.90"></rect><rect width="208" height="3" x="656" y="496.5" rx="1.5" transform="rotate(45, 760, 498)" opacity="0.30"></rect><rect width="294" height="3" x="98" y="210.5" rx="1.5" transform="rotate(45, 245, 212)" opacity="0.11"></rect><rect width="68" height="3" x="539" y="598.5" rx="1.5" transform="rotate(45, 573, 600)" opacity="0.65"></rect><rect width="616" height="3" x="-255" y="45.5" rx="1.5" transform="rotate(45, 53, 47)" opacity="0.84"></rect><rect width="570" height="3" x="-188" y="350.5" rx="1.5" transform="rotate(45, 97, 352)" opacity="0.65"></rect><rect width="422" height="3" x="559" y="590.5" rx="1.5" transform="rotate(45, 770, 592)" opacity="0.21"></rect><rect width="489" height="3" x="229.5" y="330.5" rx="1.5" transform="rotate(45, 474, 332)" opacity="0.17"></rect><rect width="469" height="3" x="-42.5" y="153.5" rx="1.5" transform="rotate(45, 192, 155)" opacity="0.71"></rect><rect width="249" height="3" x="589.5" y="22.5" rx="1.5" transform="rotate(45, 714, 24)" opacity="0.81"></rect><rect width="92" height="3" x="349" y="24.5" rx="1.5" transform="rotate(45, 395, 26)" opacity="0.50"></rect><rect width="400" height="3" x="550" y="310.5" rx="1.5" transform="rotate(45, 750, 312)" opacity="0.31"></rect><rect width="282" height="3" x="513" y="592.5" rx="1.5" transform="rotate(45, 654, 594)" opacity="0.44"></rect><rect width="301" height="3" x="265.5" y="727.5" rx="1.5" transform="rotate(45, 416, 729)" opacity="0.59"></rect><rect width="324" height="3" x="262" y="630.5" rx="1.5" transform="rotate(45, 424, 632)" opacity="0.95"></rect><rect width="175" height="3" x="667.5" y="116.5" rx="1.5" transform="rotate(45, 755, 118)" opacity="0.24"></rect><rect width="302" height="3" x="530" y="63.5" rx="1.5" transform="rotate(45, 681, 65)" opacity="0.89"></rect><rect width="588" height="3" x="282" y="291.5" rx="1.5" transform="rotate(45, 576, 293)" opacity="0.40"></rect><rect width="227" height="3" x="396.5" y="43.5" rx="1.5" transform="rotate(45, 510, 45)" opacity="0.72"></rect><rect width="256" height="3" x="324" y="779.5" rx="1.5" transform="rotate(45, 452, 781)" opacity="0.76"></rect><rect width="268" height="3" x="221" y="774.5" rx="1.5" transform="rotate(45, 355, 776)" opacity="0.09"></rect><rect width="164" height="3" x="314" y="524.5" rx="1.5" transform="rotate(45, 396, 526)" opacity="0.36"></rect><rect width="499" height="3" x="-109.5" y="93.5" rx="1.5" transform="rotate(45, 140, 95)" opacity="0.52"></rect><rect width="55" height="3" x="747.5" y="19.5" rx="1.5" transform="rotate(45, 775, 21)" opacity="0.97"></rect><rect width="233" height="3" x="639.5" y="402.5" rx="1.5" transform="rotate(45, 756, 404)" opacity="0.39"></rect></g></svg>