<svg xmlns="http://www.w3.org/2000/svg" version="1.1" xmlns:xlink="http://www.w3.org/1999/xlink" xmlns:svgjs="http://svgjs.dev/svgjs" viewBox="0 0 800 800"><circle r="10.5" cx="729" cy="402" stroke-width="2" stroke="hsl(158, 50%, 50%)" fill="none" opacity="0.44"></circle><circle r="12.5" cx="434" cy="775" stroke-width="2" stroke="hsl(172, 50%, 50%)" fill="none" opacity="0.87"></circle><circle r="12" cx="263" cy="100" stroke-width="2" stroke="hsl(163, 50%, 50%)" fill="none" opacity="0.95"></circle><circle r="8" cx="185" cy="247" stroke-width="2" stroke="hsl(84, 50%, 50%)" fill="none" opacity="0.45"></circle><circle r="7" cx="626" cy="662" stroke-width="2" stroke="hsl(168, 50%, 50%)" fill="none" opacity="0.52"></circle><circle r="16" cx="25" cy="610" stroke-width="2" stroke="hsl(192, 50%, 50%)" fill="none" opacity="0.29"></circle><circle r="8" cx="696" cy="45" stroke-width="2" stroke="hsl(102, 50%, 50%)" fill="none" opacity="0.23"></circle><circle r="15" cx="567" cy="503" stroke-width="2" stroke="hsl(186, 50%, 50%)" fill="none" opacity="0.38"></circle><circle r="10.5" cx="22" cy="349" stroke-width="2" stroke="hsl(192, 50%, 50%)" fill="none" opacity="0.22"></circle><circle r="6.5" cx="347" cy="287" stroke-width="2" stroke="hsl(85, 50%, 50%)" fill="none" opacity="0.60"></circle><circle r="8.5" cx="714" cy="230" stroke-width="2" stroke="hsl(159, 50%, 50%)" fill="none" opacity="0.81"></circle><circle r="5.5" cx="233" cy="598" stroke-width="2" stroke="hsl(42, 50%, 50%)" fill="none" opacity="0.17"></circle><circle r="10" cx="507" cy="156" stroke-width="2" stroke="hsl(201, 50%, 50%)" fill="none" opacity="0.29"></circle><circle r="6.5" cx="386" cy="604" stroke-width="2" stroke="hsl(125, 50%, 50%)" fill="none" opacity="0.85"></circle><circle r="13.5" cx="558" cy="31" stroke-width="2" stroke="hsl(240, 50%, 50%)" fill="none" opacity="0.82"></circle><circle r="7.5" cx="455" cy="355" stroke-width="2" stroke="hsl(188, 50%, 50%)" fill="none" opacity="0.25"></circle><circle r="6" cx="204" cy="781" stroke-width="2" stroke="hsl(59, 50%, 50%)" fill="none" opacity="0.20"></circle><circle r="6.5" cx="279" cy="545" stroke-width="2" stroke="hsl(37, 50%, 50%)" fill="none" opacity="0.26"></circle><circle r="5" cx="175" cy="354" stroke-width="2" stroke="hsl(84, 50%, 50%)" fill="none" opacity="0.83"></circle><circle r="6" cx="205" cy="308" stroke-width="2" stroke="hsl(59, 50%, 50%)" fill="none" opacity="0.59"></circle><circle r="12.5" cx="531" cy="548" stroke-width="2" stroke="hsl(197, 50%, 50%)" fill="none" opacity="0.67"></circle><circle r="4.5" cx="347" cy="434" stroke-width="2" stroke="hsl(85, 50%, 50%)" fill="none" opacity="0.37"></circle><circle r="6" cx="277" cy="626" stroke-width="2" stroke="hsl(37, 50%, 50%)" fill="none" opacity="0.56"></circle><circle r="6.5" cx="739" cy="786" stroke-width="2" stroke="hsl(158, 50%, 50%)" fill="none" opacity="0.38"></circle><circle r="9.5" cx="48" cy="690" stroke-width="2" stroke="hsl(193, 50%, 50%)" fill="none" opacity="0.28"></circle><circle r="9" cx="623" cy="36" stroke-width="2" stroke="hsl(175, 50%, 50%)" fill="none" opacity="0.87"></circle><circle r="9.5" cx="502" cy="517" stroke-width="2" stroke="hsl(200, 50%, 50%)" fill="none" opacity="0.94"></circle><circle r="9" cx="111" cy="454" stroke-width="2" stroke="hsl(163, 50%, 50%)" fill="none" opacity="1.00"></circle><circle r="8" cx="598" cy="161" stroke-width="2" stroke="hsl(161, 50%, 50%)" fill="none" opacity="0.95"></circle><circle r="6" cx="215" cy="529" stroke-width="2" stroke="hsl(49, 50%, 50%)" fill="none" opacity="0.42"></circle><circle r="10.5" cx="776" cy="320" stroke-width="2" stroke="hsl(158, 50%, 50%)" fill="none" opacity="0.25"></circle><circle r="6" cx="223" cy="490" stroke-width="2" stroke="hsl(49, 50%, 50%)" fill="none" opacity="0.98"></circle><circle r="10.5" cx="719" cy="357" stroke-width="2" stroke="hsl(159, 50%, 50%)" fill="none" opacity="0.27"></circle><circle r="9.5" cx="591" cy="199" stroke-width="2" stroke="hsl(178, 50%, 50%)" fill="none" opacity="0.42"></circle><circle r="11.5" cx="21" cy="178" stroke-width="2" stroke="hsl(192, 50%, 50%)" fill="none" opacity="0.27"></circle><circle r="9.5" cx="120" cy="653" stroke-width="2" stroke="hsl(152, 50%, 50%)" fill="none" opacity="0.32"></circle><circle r="12.5" cx="489" cy="68" stroke-width="2" stroke="hsl(264, 50%, 50%)" fill="none" opacity="0.42"></circle><circle r="8.5" cx="137" cy="599" stroke-width="2" stroke="hsl(139, 50%, 50%)" fill="none" opacity="0.26"></circle><circle r="2.5" cx="795" cy="590" stroke-width="2" stroke="hsl(158, 50%, 50%)" fill="none" opacity="0.89"></circle><circle r="10" cx="54" cy="746" stroke-width="2" stroke="hsl(190, 50%, 50%)" fill="none" opacity="0.41"></circle><circle r="8" cx="388" cy="414" stroke-width="2" stroke="hsl(138, 50%, 50%)" fill="none" opacity="0.80"></circle><circle r="4.5" cx="774" cy="724" stroke-width="2" stroke="hsl(158, 50%, 50%)" fill="none" opacity="0.33"></circle><circle r="8" cx="457" cy="300" stroke-width="2" stroke="hsl(188, 50%, 50%)" fill="none" opacity="0.82"></circle><circle r="13.5" cx="67" cy="562" stroke-width="2" stroke="hsl(186, 50%, 50%)" fill="none" opacity="0.92"></circle><circle r="10" cx="406" cy="248" stroke-width="2" stroke="hsl(151, 50%, 50%)" fill="none" opacity="0.76"></circle><circle r="8.5" cx="605" cy="375" stroke-width="2" stroke="hsl(175, 50%, 50%)" fill="none" opacity="0.86"></circle><circle r="8" cx="490" cy="550" stroke-width="2" stroke="hsl(199, 50%, 50%)" fill="none" opacity="0.46"></circle><circle r="19.5" cx="167" cy="31" stroke-width="2" stroke="hsl(287, 50%, 50%)" fill="none" opacity="0.95"></circle><circle r="11" cx="640" cy="182" stroke-width="2" stroke="hsl(155, 50%, 50%)" fill="none" opacity="0.45"></circle><circle r="8.5" cx="722" cy="305" stroke-width="2" stroke="hsl(159, 50%, 50%)" fill="none" opacity="0.30"></circle><circle r="16.5" cx="453" cy="26" stroke-width="2" stroke="hsl(292, 50%, 50%)" fill="none" opacity="0.15"></circle><circle r="9.5" cx="780" cy="414" stroke-width="2" stroke="hsl(158, 50%, 50%)" fill="none" opacity="0.92"></circle><circle r="8.5" cx="16" cy="681" stroke-width="2" stroke="hsl(192, 50%, 50%)" fill="none" opacity="0.47"></circle><circle r="8" cx="123" cy="713" stroke-width="2" stroke="hsl(152, 50%, 50%)" fill="none" opacity="0.93"></circle><circle r="8" cx="16" cy="288" stroke-width="2" stroke="hsl(192, 50%, 50%)" fill="none" opacity="0.78"></circle><circle r="9" cx="358" cy="677" stroke-width="2" stroke="hsl(98, 50%, 50%)" fill="none" opacity="0.88"></circle><circle r="9.5" cx="558" cy="281" stroke-width="2" stroke="hsl(190, 50%, 50%)" fill="none" opacity="0.58"></circle><circle r="11" cx="725" cy="449" stroke-width="2" stroke="hsl(158, 50%, 50%)" fill="none" opacity="0.56"></circle><circle r="10" cx="522" cy="668" stroke-width="2" stroke="hsl(199, 50%, 50%)" fill="none" opacity="0.70"></circle><circle r="7" cx="540" cy="247" stroke-width="2" stroke="hsl(194, 50%, 50%)" fill="none" opacity="0.44"></circle><circle r="8" cx="374" cy="13" stroke-width="2" stroke="hsl(271, 50%, 50%)" fill="none" opacity="0.74"></circle><circle r="9" cx="632" cy="134" stroke-width="2" stroke="hsl(132, 50%, 50%)" fill="none" opacity="0.93"></circle><circle r="7.5" cx="739" cy="196" stroke-width="2" stroke="hsl(158, 50%, 50%)" fill="none" opacity="0.54"></circle><circle r="9" cx="718" cy="630" stroke-width="2" stroke="hsl(159, 50%, 50%)" fill="none" opacity="0.52"></circle><circle r="9" cx="629" cy="92" stroke-width="2" stroke="hsl(132, 50%, 50%)" fill="none" opacity="0.71"></circle><circle r="9.5" cx="427" cy="498" stroke-width="2" stroke="hsl(172, 50%, 50%)" fill="none" opacity="0.57"></circle><circle r="7" cx="511" cy="735" stroke-width="2" stroke="hsl(200, 50%, 50%)" fill="none" opacity="0.70"></circle><circle r="11" cx="423" cy="147" stroke-width="2" stroke="hsl(183, 50%, 50%)" fill="none" opacity="0.98"></circle><circle r="7.5" cx="129" cy="392" stroke-width="2" stroke="hsl(139, 50%, 50%)" fill="none" opacity="0.19"></circle><circle r="13" cx="85" cy="371" stroke-width="2" stroke="hsl(181, 50%, 50%)" fill="none" opacity="0.44"></circle><circle r="4.5" cx="384" cy="648" stroke-width="2" stroke="hsl(125, 50%, 50%)" fill="none" opacity="0.58"></circle><circle r="14" cx="175" cy="105" stroke-width="2" stroke="hsl(208, 50%, 50%)" fill="none" opacity="0.95"></circle><circle r="14" cx="392" cy="721" stroke-width="2" stroke="hsl(138, 50%, 50%)" fill="none" opacity="0.13"></circle><circle r="10" cx="98" cy="746" stroke-width="2" stroke="hsl(173, 50%, 50%)" fill="none" opacity="0.34"></circle><circle r="10" cx="482" cy="748" stroke-width="2" stroke="hsl(197, 50%, 50%)" fill="none" opacity="0.82"></circle><circle r="6" cx="260" cy="307" stroke-width="2" stroke="hsl(34, 50%, 50%)" fill="none" opacity="0.44"></circle><circle r="4.5" cx="255" cy="477" stroke-width="2" stroke="hsl(34, 50%, 50%)" fill="none" opacity="0.30"></circle><circle r="12" cx="350" cy="763" stroke-width="2" stroke="hsl(85, 50%, 50%)" fill="none" opacity="0.93"></circle><circle r="8" cx="535" cy="716" stroke-width="2" stroke="hsl(197, 50%, 50%)" fill="none" opacity="0.91"></circle><circle r="10.5" cx="590" cy="60" stroke-width="2" stroke="hsl(188, 50%, 50%)" fill="none" opacity="0.34"></circle><circle r="5" cx="218" cy="659" stroke-width="2" stroke="hsl(49, 50%, 50%)" fill="none" opacity="0.46"></circle><circle r="5.5" cx="470" cy="562" stroke-width="2" stroke="hsl(194, 50%, 50%)" fill="none" opacity="0.98"></circle><circle r="13.5" cx="445" cy="84" stroke-width="2" stroke="hsl(257, 50%, 50%)" fill="none" opacity="0.53"></circle><circle r="6.5" cx="430" cy="646" stroke-width="2" stroke="hsl(172, 50%, 50%)" fill="none" opacity="0.41"></circle><circle r="7" cx="565" cy="135" stroke-width="2" stroke="hsl(178, 50%, 50%)" fill="none" opacity="0.46"></circle><circle r="3.5" cx="793" cy="730" stroke-width="2" stroke="hsl(158, 50%, 50%)" fill="none" opacity="0.45"></circle><circle r="12" cx="450" cy="717" stroke-width="2" stroke="hsl(181, 50%, 50%)" fill="none" opacity="0.76"></circle><circle r="8.5" cx="84" cy="656" stroke-width="2" stroke="hsl(181, 50%, 50%)" fill="none" opacity="0.42"></circle><circle r="13.5" cx="26" cy="413" stroke-width="2" stroke="hsl(193, 50%, 50%)" fill="none" opacity="0.15"></circle><circle r="7" cx="616" cy="521" stroke-width="2" stroke="hsl(171, 50%, 50%)" fill="none" opacity="0.56"></circle><circle r="9" cx="487" cy="306" stroke-width="2" stroke="hsl(197, 50%, 50%)" fill="none" opacity="0.30"></circle><circle r="8.5" cx="648" cy="503" stroke-width="2" stroke="hsl(166, 50%, 50%)" fill="none" opacity="0.40"></circle><circle r="8.5" cx="501" cy="702" stroke-width="2" stroke="hsl(200, 50%, 50%)" fill="none" opacity="0.19"></circle><circle r="6.5" cx="377" cy="496" stroke-width="2" stroke="hsl(125, 50%, 50%)" fill="none" opacity="0.84"></circle><circle r="13" cx="516" cy="410" stroke-width="2" stroke="hsl(199, 50%, 50%)" fill="none" opacity="0.77"></circle><circle r="3.5" cx="179" cy="637" stroke-width="2" stroke="hsl(84, 50%, 50%)" fill="none" opacity="0.57"></circle><circle r="12" cx="128" cy="119" stroke-width="2" stroke="hsl(231, 50%, 50%)" fill="none" opacity="0.15"></circle><circle r="8" cx="303" cy="289" stroke-width="2" stroke="hsl(51, 50%, 50%)" fill="none" opacity="0.65"></circle><circle r="11.5" cx="462" cy="228" stroke-width="2" stroke="hsl(188, 50%, 50%)" fill="none" opacity="0.16"></circle><circle r="10" cx="771" cy="364" stroke-width="2" stroke="hsl(158, 50%, 50%)" fill="none" opacity="0.14"></circle><circle r="7" cx="776" cy="613" stroke-width="2" stroke="hsl(158, 50%, 50%)" fill="none" opacity="0.25"></circle><circle r="8.5" cx="596" cy="422" stroke-width="2" stroke="hsl(178, 50%, 50%)" fill="none" opacity="0.16"></circle><circle r="4" cx="265" cy="448" stroke-width="2" stroke="hsl(34, 50%, 50%)" fill="none" opacity="0.94"></circle><circle r="5.5" cx="162" cy="499" stroke-width="2" stroke="hsl(112, 50%, 50%)" fill="none" opacity="0.87"></circle><circle r="7.5" cx="567" cy="174" stroke-width="2" stroke="hsl(177, 50%, 50%)" fill="none" opacity="0.60"></circle><circle r="11.5" cx="770" cy="38" stroke-width="2" stroke="hsl(93, 50%, 50%)" fill="none" opacity="0.71"></circle><circle r="7.5" cx="106" cy="580" stroke-width="2" stroke="hsl(163, 50%, 50%)" fill="none" opacity="0.79"></circle><circle r="8" cx="341" cy="91" stroke-width="2" stroke="hsl(184, 50%, 50%)" fill="none" opacity="0.31"></circle><circle r="4" cx="385" cy="628" stroke-width="2" stroke="hsl(125, 50%, 50%)" fill="none" opacity="0.26"></circle><circle r="5" cx="331" cy="136" stroke-width="2" stroke="hsl(123, 50%, 50%)" fill="none" opacity="0.86"></circle><circle r="10" cx="492" cy="629" stroke-width="2" stroke="hsl(199, 50%, 50%)" fill="none" opacity="0.22"></circle><circle r="6.5" cx="173" cy="590" stroke-width="2" stroke="hsl(97, 50%, 50%)" fill="none" opacity="0.79"></circle><circle r="13" cx="67" cy="181" stroke-width="2" stroke="hsl(194, 50%, 50%)" fill="none" opacity="0.91"></circle><circle r="8" cx="134" cy="480" stroke-width="2" stroke="hsl(139, 50%, 50%)" fill="none" opacity="0.55"></circle><circle r="10.5" cx="700" cy="505" stroke-width="2" stroke="hsl(160, 50%, 50%)" fill="none" opacity="0.64"></circle><circle r="5" cx="355" cy="150" stroke-width="2" stroke="hsl(129, 50%, 50%)" fill="none" opacity="0.13"></circle><circle r="10" cx="596" cy="775" stroke-width="2" stroke="hsl(178, 50%, 50%)" fill="none" opacity="0.13"></circle><circle r="10" cx="481" cy="670" stroke-width="2" stroke="hsl(197, 50%, 50%)" fill="none" opacity="0.78"></circle><circle r="10.5" cx="505" cy="593" stroke-width="2" stroke="hsl(200, 50%, 50%)" fill="none" opacity="0.48"></circle><circle r="8" cx="457" cy="620" stroke-width="2" stroke="hsl(188, 50%, 50%)" fill="none" opacity="0.63"></circle><circle r="8" cx="448" cy="673" stroke-width="2" stroke="hsl(181, 50%, 50%)" fill="none" opacity="0.36"></circle><circle r="15" cx="517" cy="471" stroke-width="2" stroke="hsl(199, 50%, 50%)" fill="none" opacity="0.70"></circle><circle r="7" cx="315" cy="419" stroke-width="2" stroke="hsl(61, 50%, 50%)" fill="none" opacity="0.41"></circle><circle r="8" cx="779" cy="522" stroke-width="2" stroke="hsl(158, 50%, 50%)" fill="none" opacity="0.48"></circle><circle r="8" cx="108" cy="94" stroke-width="2" stroke="hsl(259, 50%, 50%)" fill="none" opacity="0.35"></circle><circle r="5.5" cx="324" cy="373" stroke-width="2" stroke="hsl(61, 50%, 50%)" fill="none" opacity="0.37"></circle><circle r="12" cx="506" cy="265" stroke-width="2" stroke="hsl(200, 50%, 50%)" fill="none" opacity="0.87"></circle><circle r="5" cx="256" cy="735" stroke-width="2" stroke="hsl(34, 50%, 50%)" fill="none" opacity="0.28"></circle><circle r="5" cx="181" cy="523" stroke-width="2" stroke="hsl(84, 50%, 50%)" fill="none" opacity="0.48"></circle><circle r="7.5" cx="304" cy="116" stroke-width="2" stroke="hsl(126, 50%, 50%)" fill="none" opacity="0.67"></circle><circle r="9" cx="414" cy="583" stroke-width="2" stroke="hsl(162, 50%, 50%)" fill="none" opacity="0.34"></circle><circle r="6.5" cx="251" cy="348" stroke-width="2" stroke="hsl(34, 50%, 50%)" fill="none" opacity="0.96"></circle><circle r="12" cx="366" cy="54" stroke-width="2" stroke="hsl(246, 50%, 50%)" fill="none" opacity="0.12"></circle><circle r="11" cx="682" cy="129" stroke-width="2" stroke="hsl(104, 50%, 50%)" fill="none" opacity="0.46"></circle><circle r="9.5" cx="371" cy="181" stroke-width="2" stroke="hsl(114, 50%, 50%)" fill="none" opacity="0.73"></circle><circle r="5" cx="790" cy="708" stroke-width="2" stroke="hsl(158, 50%, 50%)" fill="none" opacity="0.76"></circle><circle r="6.5" cx="212" cy="442" stroke-width="2" stroke="hsl(59, 50%, 50%)" fill="none" opacity="0.27"></circle><circle r="9.5" cx="520" cy="202" stroke-width="2" stroke="hsl(199, 50%, 50%)" fill="none" opacity="0.92"></circle><circle r="7" cx="784" cy="753" stroke-width="2" stroke="hsl(158, 50%, 50%)" fill="none" opacity="0.76"></circle><circle r="10.5" cx="654" cy="290" stroke-width="2" stroke="hsl(164, 50%, 50%)" fill="none" opacity="0.62"></circle><circle r="6.5" cx="744" cy="257" stroke-width="2" stroke="hsl(158, 50%, 50%)" fill="none" opacity="0.31"></circle><circle r="9.5" cx="731" cy="78" stroke-width="2" stroke="hsl(71, 50%, 50%)" fill="none" opacity="0.16"></circle><circle r="10" cx="167" cy="757" stroke-width="2" stroke="hsl(97, 50%, 50%)" fill="none" opacity="0.46"></circle><circle r="11" cx="470" cy="492" stroke-width="2" stroke="hsl(194, 50%, 50%)" fill="none" opacity="0.75"></circle><circle r="8.5" cx="651" cy="638" stroke-width="2" stroke="hsl(164, 50%, 50%)" fill="none" opacity="0.77"></circle><circle r="7.5" cx="64" cy="785" stroke-width="2" stroke="hsl(186, 50%, 50%)" fill="none" opacity="0.98"></circle><circle r="6" cx="155" cy="645" stroke-width="2" stroke="hsl(112, 50%, 50%)" fill="none" opacity="0.71"></circle><circle r="12" cx="453" cy="445" stroke-width="2" stroke="hsl(188, 50%, 50%)" fill="none" opacity="0.41"></circle><circle r="6.5" cx="373" cy="261" stroke-width="2" stroke="hsl(112, 50%, 50%)" fill="none" opacity="0.99"></circle><circle r="7.5" cx="604" cy="679" stroke-width="2" stroke="hsl(175, 50%, 50%)" fill="none" opacity="0.42"></circle><circle r="8" cx="724" cy="749" stroke-width="2" stroke="hsl(159, 50%, 50%)" fill="none" opacity="0.40"></circle><circle r="9" cx="305" cy="76" stroke-width="2" stroke="hsl(183, 50%, 50%)" fill="none" opacity="0.23"></circle><circle r="5.5" cx="249" cy="179" stroke-width="2" stroke="hsl(48, 50%, 50%)" fill="none" opacity="0.68"></circle><circle r="4.5" cx="768" cy="699" stroke-width="2" stroke="hsl(158, 50%, 50%)" fill="none" opacity="0.27"></circle><circle r="9" cx="670" cy="604" stroke-width="2" stroke="hsl(163, 50%, 50%)" fill="none" opacity="0.39"></circle><circle r="11" cx="558" cy="742" stroke-width="2" stroke="hsl(190, 50%, 50%)" fill="none" opacity="0.56"></circle><circle r="8" cx="637" cy="577" stroke-width="2" stroke="hsl(168, 50%, 50%)" fill="none" opacity="0.65"></circle><circle r="7.5" cx="600" cy="455" stroke-width="2" stroke="hsl(175, 50%, 50%)" fill="none" opacity="0.49"></circle><circle r="13.5" cx="477" cy="117" stroke-width="2" stroke="hsl(226, 50%, 50%)" fill="none" opacity="0.82"></circle><circle r="5.5" cx="281" cy="585" stroke-width="2" stroke="hsl(37, 50%, 50%)" fill="none" opacity="0.74"></circle><circle r="5.5" cx="630" cy="547" stroke-width="2" stroke="hsl(168, 50%, 50%)" fill="none" opacity="0.61"></circle><circle r="12.5" cx="22" cy="117" stroke-width="2" stroke="hsl(193, 50%, 50%)" fill="none" opacity="0.30"></circle><circle r="7.5" cx="783" cy="784" stroke-width="2" stroke="hsl(158, 50%, 50%)" fill="none" opacity="0.19"></circle><circle r="7.5" cx="615" cy="485" stroke-width="2" stroke="hsl(171, 50%, 50%)" fill="none" opacity="0.78"></circle><circle r="9" cx="106" cy="154" stroke-width="2" stroke="hsl(202, 50%, 50%)" fill="none" opacity="0.22"></circle><circle r="9" cx="412" cy="367" stroke-width="2" stroke="hsl(151, 50%, 50%)" fill="none" opacity="0.70"></circle><circle r="7" cx="756" cy="678" stroke-width="2" stroke="hsl(158, 50%, 50%)" fill="none" opacity="0.65"></circle><circle r="9" cx="693" cy="658" stroke-width="2" stroke="hsl(160, 50%, 50%)" fill="none" opacity="0.41"></circle><circle r="10.5" cx="290" cy="18" stroke-width="2" stroke="hsl(245, 50%, 50%)" fill="none" opacity="0.70"></circle><circle r="11" cx="327" cy="41" stroke-width="2" stroke="hsl(237, 50%, 50%)" fill="none" opacity="0.18"></circle><circle r="4.5" cx="243" cy="784" stroke-width="2" stroke="hsl(37, 50%, 50%)" fill="none" opacity="0.74"></circle><circle r="8" cx="357" cy="360" stroke-width="2" stroke="hsl(98, 50%, 50%)" fill="none" opacity="0.85"></circle><circle r="10.5" cx="742" cy="505" stroke-width="2" stroke="hsl(158, 50%, 50%)" fill="none" opacity="0.73"></circle><circle r="7" cx="298" cy="679" stroke-width="2" stroke="hsl(43, 50%, 50%)" fill="none" opacity="0.85"></circle><circle r="3.5" cx="783" cy="583" stroke-width="2" stroke="hsl(158, 50%, 50%)" fill="none" opacity="0.79"></circle><circle r="9.5" cx="679" cy="459" stroke-width="2" stroke="hsl(161, 50%, 50%)" fill="none" opacity="0.51"></circle><circle r="11.5" cx="58" cy="235" stroke-width="2" stroke="hsl(190, 50%, 50%)" fill="none" opacity="0.44"></circle><circle r="7.5" cx="357" cy="228" stroke-width="2" stroke="hsl(98, 50%, 50%)" fill="none" opacity="0.48"></circle><circle r="6.5" cx="202" cy="576" stroke-width="2" stroke="hsl(59, 50%, 50%)" fill="none" opacity="0.60"></circle><circle r="8" cx="558" cy="785" stroke-width="2" stroke="hsl(190, 50%, 50%)" fill="none" opacity="0.14"></circle><circle r="7" cx="307" cy="236" stroke-width="2" stroke="hsl(51, 50%, 50%)" fill="none" opacity="0.17"></circle><circle r="8.5" cx="537" cy="341" stroke-width="2" stroke="hsl(197, 50%, 50%)" fill="none" opacity="0.19"></circle><circle r="11" cx="511" cy="779" stroke-width="2" stroke="hsl(200, 50%, 50%)" fill="none" opacity="0.66"></circle><circle r="14" cx="37" cy="28" stroke-width="2" stroke="hsl(214, 50%, 50%)" fill="none" opacity="0.48"></circle><circle r="6" cx="573" cy="347" stroke-width="2" stroke="hsl(186, 50%, 50%)" fill="none" opacity="0.32"></circle><circle r="6.5" cx="219" cy="211" stroke-width="2" stroke="hsl(49, 50%, 50%)" fill="none" opacity="0.31"></circle><circle r="6" cx="12" cy="746" stroke-width="2" stroke="hsl(191, 50%, 50%)" fill="none" opacity="0.81"></circle><circle r="11.5" cx="636" cy="766" stroke-width="2" stroke="hsl(168, 50%, 50%)" fill="none" opacity="0.50"></circle><circle r="7.5" cx="421" cy="619" stroke-width="2" stroke="hsl(162, 50%, 50%)" fill="none" opacity="0.23"></circle><circle r="5" cx="245" cy="641" stroke-width="2" stroke="hsl(37, 50%, 50%)" fill="none" opacity="0.68"></circle><circle r="7.5" cx="594" cy="126" stroke-width="2" stroke="hsl(159, 50%, 50%)" fill="none" opacity="0.20"></circle><circle r="7.5" cx="645" cy="454" stroke-width="2" stroke="hsl(166, 50%, 50%)" fill="none" opacity="0.49"></circle><circle r="4" cx="789" cy="547" stroke-width="2" stroke="hsl(158, 50%, 50%)" fill="none" opacity="0.60"></circle><circle r="7" cx="323" cy="529" stroke-width="2" stroke="hsl(61, 50%, 50%)" fill="none" opacity="0.96"></circle><circle r="8.5" cx="133" cy="353" stroke-width="2" stroke="hsl(139, 50%, 50%)" fill="none" opacity="0.74"></circle><circle r="9" cx="486" cy="385" stroke-width="2" stroke="hsl(197, 50%, 50%)" fill="none" opacity="0.73"></circle><circle r="13.5" cx="670" cy="399" stroke-width="2" stroke="hsl(163, 50%, 50%)" fill="none" opacity="0.56"></circle><circle r="7" cx="738" cy="597" stroke-width="2" stroke="hsl(158, 50%, 50%)" fill="none" opacity="0.67"></circle><circle r="15.5" cx="410" cy="48" stroke-width="2" stroke="hsl(276, 50%, 50%)" fill="none" opacity="0.44"></circle><circle r="6.5" cx="233" cy="698" stroke-width="2" stroke="hsl(42, 50%, 50%)" fill="none" opacity="0.20"></circle><circle r="6" cx="272" cy="215" stroke-width="2" stroke="hsl(34, 50%, 50%)" fill="none" opacity="0.88"></circle><circle r="10.5" cx="646" cy="337" stroke-width="2" stroke="hsl(166, 50%, 50%)" fill="none" opacity="0.96"></circle><circle r="10" cx="166" cy="160" stroke-width="2" stroke="hsl(148, 50%, 50%)" fill="none" opacity="0.83"></circle><circle r="8.5" cx="764" cy="124" stroke-width="2" stroke="hsl(77, 50%, 50%)" fill="none" opacity="0.23"></circle><circle r="12" cx="525" cy="99" stroke-width="2" stroke="hsl(233, 50%, 50%)" fill="none" opacity="0.33"></circle><circle r="7" cx="572" cy="227" stroke-width="2" stroke="hsl(186, 50%, 50%)" fill="none" opacity="0.23"></circle><circle r="7.5" cx="366" cy="114" stroke-width="2" stroke="hsl(169, 50%, 50%)" fill="none" opacity="0.56"></circle><circle r="8" cx="751" cy="549" stroke-width="2" stroke="hsl(158, 50%, 50%)" fill="none" opacity="0.39"></circle><circle r="6.5" cx="635" cy="384" stroke-width="2" stroke="hsl(168, 50%, 50%)" fill="none" opacity="0.13"></circle><circle r="7" cx="246" cy="257" stroke-width="2" stroke="hsl(37, 50%, 50%)" fill="none" opacity="0.43"></circle><circle r="8.5" cx="491" cy="347" stroke-width="2" stroke="hsl(199, 50%, 50%)" fill="none" opacity="0.76"></circle><circle r="7" cx="177" cy="455" stroke-width="2" stroke="hsl(84, 50%, 50%)" fill="none" opacity="0.39"></circle><circle r="6" cx="786" cy="168" stroke-width="2" stroke="hsl(125, 50%, 50%)" fill="none" opacity="0.72"></circle><circle r="9" cx="449" cy="267" stroke-width="2" stroke="hsl(181, 50%, 50%)" fill="none" opacity="0.14"></circle><circle r="11.5" cx="604" cy="310" stroke-width="2" stroke="hsl(175, 50%, 50%)" fill="none" opacity="0.65"></circle><circle r="6" cx="280" cy="504" stroke-width="2" stroke="hsl(37, 50%, 50%)" fill="none" opacity="0.22"></circle><circle r="5.5" cx="240" cy="558" stroke-width="2" stroke="hsl(37, 50%, 50%)" fill="none" opacity="0.93"></circle><circle r="5" cx="759" cy="582" stroke-width="2" stroke="hsl(158, 50%, 50%)" fill="none" opacity="0.84"></circle><circle r="6.5" cx="584" cy="258" stroke-width="2" stroke="hsl(182, 50%, 50%)" fill="none" opacity="0.36"></circle><circle r="8.5" cx="166" cy="204" stroke-width="2" stroke="hsl(97, 50%, 50%)" fill="none" opacity="0.48"></circle><circle r="8" cx="138" cy="426" stroke-width="2" stroke="hsl(126, 50%, 50%)" fill="none" opacity="0.32"></circle><circle r="11" cx="36" cy="75" stroke-width="2" stroke="hsl(211, 50%, 50%)" fill="none" opacity="0.13"></circle><circle r="11" cx="254" cy="38" stroke-width="2" stroke="hsl(233, 50%, 50%)" fill="none" opacity="0.88"></circle><circle r="6.5" cx="351" cy="618" stroke-width="2" stroke="hsl(98, 50%, 50%)" fill="none" opacity="0.25"></circle><circle r="10.5" cx="592" cy="552" stroke-width="2" stroke="hsl(178, 50%, 50%)" fill="none" opacity="0.58"></circle><circle r="8" cx="156" cy="696" stroke-width="2" stroke="hsl(112, 50%, 50%)" fill="none" opacity="0.77"></circle><circle r="14" cx="68" cy="128" stroke-width="2" stroke="hsl(225, 50%, 50%)" fill="none" opacity="0.40"></circle><circle r="13.5" cx="404" cy="106" stroke-width="2" stroke="hsl(213, 50%, 50%)" fill="none" opacity="0.58"></circle><circle r="7" cx="285" cy="777" stroke-width="2" stroke="hsl(37, 50%, 50%)" fill="none" opacity="0.57"></circle><circle r="10" cx="114" cy="519" stroke-width="2" stroke="hsl(152, 50%, 50%)" fill="none" opacity="0.26"></circle><circle r="7" cx="298" cy="726" stroke-width="2" stroke="hsl(43, 50%, 50%)" fill="none" opacity="0.88"></circle><circle r="9" cx="691" cy="331" stroke-width="2" stroke="hsl(160, 50%, 50%)" fill="none" opacity="0.79"></circle><circle r="7.5" cx="518" cy="318" stroke-width="2" stroke="hsl(199, 50%, 50%)" fill="none" opacity="0.27"></circle><circle r="4.5" cx="215" cy="277" stroke-width="2" stroke="hsl(49, 50%, 50%)" fill="none" opacity="0.15"></circle><circle r="9.5" cx="46" cy="312" stroke-width="2" stroke="hsl(193, 50%, 50%)" fill="none" opacity="0.10"></circle><circle r="9.5" cx="22" cy="243" stroke-width="2" stroke="hsl(192, 50%, 50%)" fill="none" opacity="0.27"></circle><circle r="5.5" cx="292" cy="367" stroke-width="2" stroke="hsl(43, 50%, 50%)" fill="none" opacity="0.15"></circle><circle r="9" cx="361" cy="572" stroke-width="2" stroke="hsl(98, 50%, 50%)" fill="none" opacity="0.61"></circle><circle r="8" cx="664" cy="737" stroke-width="2" stroke="hsl(163, 50%, 50%)" fill="none" opacity="0.95"></circle><circle r="8" cx="130" cy="777" stroke-width="2" stroke="hsl(139, 50%, 50%)" fill="none" opacity="0.13"></circle><circle r="6.5" cx="66" cy="635" stroke-width="2" stroke="hsl(186, 50%, 50%)" fill="none" opacity="0.97"></circle><circle r="9" cx="686" cy="781" stroke-width="2" stroke="hsl(161, 50%, 50%)" fill="none" opacity="0.34"></circle><circle r="6.5" cx="622" cy="714" stroke-width="2" stroke="hsl(171, 50%, 50%)" fill="none" opacity="0.63"></circle><circle r="11" cx="670" cy="219" stroke-width="2" stroke="hsl(163, 50%, 50%)" fill="none" opacity="0.47"></circle><circle r="8" cx="595" cy="726" stroke-width="2" stroke="hsl(178, 50%, 50%)" fill="none" opacity="0.60"></circle><circle r="11.5" cx="91" cy="266" stroke-width="2" stroke="hsl(173, 50%, 50%)" fill="none" opacity="0.40"></circle><circle r="11.5" cx="424" cy="196" stroke-width="2" stroke="hsl(162, 50%, 50%)" fill="none" opacity="0.90"></circle><circle r="5" cx="266" cy="404" stroke-width="2" stroke="hsl(34, 50%, 50%)" fill="none" opacity="1.00"></circle><circle r="6.5" cx="85" cy="610" stroke-width="2" stroke="hsl(181, 50%, 50%)" fill="none" opacity="0.86"></circle><circle r="9.5" cx="426" cy="409" stroke-width="2" stroke="hsl(172, 50%, 50%)" fill="none" opacity="0.50"></circle><circle r="5" cx="755" cy="764" stroke-width="2" stroke="hsl(158, 50%, 50%)" fill="none" opacity="0.28"></circle><circle r="9.5" cx="716" cy="555" stroke-width="2" stroke="hsl(159, 50%, 50%)" fill="none" opacity="0.86"></circle><circle r="5.5" cx="160" cy="386" stroke-width="2" stroke="hsl(112, 50%, 50%)" fill="none" opacity="0.36"></circle><circle r="8" cx="392" cy="337" stroke-width="2" stroke="hsl(138, 50%, 50%)" fill="none" opacity="0.70"></circle><circle r="13.5" cx="22" cy="517" stroke-width="2" stroke="hsl(192, 50%, 50%)" fill="none" opacity="0.10"></circle><circle r="6.5" cx="212" cy="738" stroke-width="2" stroke="hsl(59, 50%, 50%)" fill="none" opacity="0.24"></circle><circle r="6.5" cx="358" cy="521" stroke-width="2" stroke="hsl(98, 50%, 50%)" fill="none" opacity="0.69"></circle><circle r="8.5" cx="121" cy="185" stroke-width="2" stroke="hsl(166, 50%, 50%)" fill="none" opacity="0.12"></circle><circle r="16" cx="66" cy="490" stroke-width="2" stroke="hsl(186, 50%, 50%)" fill="none" opacity="0.94"></circle><circle r="10" cx="566" cy="96" stroke-width="2" stroke="hsl(193, 50%, 50%)" fill="none" opacity="0.54"></circle><circle r="4" cx="758" cy="720" stroke-width="2" stroke="hsl(158, 50%, 50%)" fill="none" opacity="0.82"></circle><circle r="9" cx="682" cy="264" stroke-width="2" stroke="hsl(161, 50%, 50%)" fill="none" opacity="0.99"></circle><circle r="10.5" cx="473" cy="175" stroke-width="2" stroke="hsl(193, 50%, 50%)" fill="none" opacity="0.45"></circle><circle r="10" cx="226" cy="142" stroke-width="2" stroke="hsl(103, 50%, 50%)" fill="none" opacity="0.95"></circle><circle r="9" cx="108" cy="220" stroke-width="2" stroke="hsl(163, 50%, 50%)" fill="none" opacity="0.36"></circle><circle r="5" cx="755" cy="742" stroke-width="2" stroke="hsl(158, 50%, 50%)" fill="none" opacity="0.20"></circle><circle r="6.5" cx="321" cy="640" stroke-width="2" stroke="hsl(61, 50%, 50%)" fill="none" opacity="0.21"></circle><circle r="7" cx="762" cy="222" stroke-width="2" stroke="hsl(158, 50%, 50%)" fill="none" opacity="0.82"></circle><circle r="8" cx="753" cy="287" stroke-width="2" stroke="hsl(158, 50%, 50%)" fill="none" opacity="0.24"></circle><circle r="11.5" cx="85" cy="318" stroke-width="2" stroke="hsl(181, 50%, 50%)" fill="none" opacity="0.89"></circle><circle r="9.5" cx="26" cy="775" stroke-width="2" stroke="hsl(193, 50%, 50%)" fill="none" opacity="0.42"></circle><circle r="6.5" cx="366" cy="455" stroke-width="2" stroke="hsl(112, 50%, 50%)" fill="none" opacity="0.80"></circle><circle r="5.5" cx="788" cy="675" stroke-width="2" stroke="hsl(158, 50%, 50%)" fill="none" opacity="0.31"></circle><circle r="6.5" cx="180" cy="411" stroke-width="2" stroke="hsl(84, 50%, 50%)" fill="none" opacity="0.84"></circle><circle r="3.5" cx="790" cy="564" stroke-width="2" stroke="hsl(158, 50%, 50%)" fill="none" opacity="0.99"></circle><circle r="8.5" cx="411" cy="674" stroke-width="2" stroke="hsl(151, 50%, 50%)" fill="none" opacity="0.69"></circle><circle r="4" cx="246" cy="434" stroke-width="2" stroke="hsl(37, 50%, 50%)" fill="none" opacity="0.90"></circle><circle r="8.5" cx="541" cy="151" stroke-width="2" stroke="hsl(189, 50%, 50%)" fill="none" opacity="0.65"></circle><circle r="5" cx="654" cy="535" stroke-width="2" stroke="hsl(164, 50%, 50%)" fill="none" opacity="0.90"></circle><circle r="13" cx="75" cy="427" stroke-width="2" stroke="hsl(186, 50%, 50%)" fill="none" opacity="0.33"></circle><circle r="10" cx="398" cy="542" stroke-width="2" stroke="hsl(138, 50%, 50%)" fill="none" opacity="0.39"></circle><circle r="10" cx="561" cy="376" stroke-width="2" stroke="hsl(190, 50%, 50%)" fill="none" opacity="0.40"></circle><circle r="8" cx="703" cy="591" stroke-width="2" stroke="hsl(160, 50%, 50%)" fill="none" opacity="0.79"></circle><circle r="4" cx="771" cy="566" stroke-width="2" stroke="hsl(158, 50%, 50%)" fill="none" opacity="0.29"></circle><circle r="9.5" cx="142" cy="260" stroke-width="2" stroke="hsl(126, 50%, 50%)" fill="none" opacity="0.70"></circle><circle r="5.5" cx="98" cy="788" stroke-width="2" stroke="hsl(173, 50%, 50%)" fill="none" opacity="0.42"></circle><circle r="9.5" cx="442" cy="538" stroke-width="2" stroke="hsl(181, 50%, 50%)" fill="none" opacity="0.47"></circle><circle r="11.5" cx="541" cy="631" stroke-width="2" stroke="hsl(194, 50%, 50%)" fill="none" opacity="0.44"></circle><circle r="10" cx="128" cy="308" stroke-width="2" stroke="hsl(139, 50%, 50%)" fill="none" opacity="0.71"></circle><circle r="7" cx="661" cy="671" stroke-width="2" stroke="hsl(164, 50%, 50%)" fill="none" opacity="0.37"></circle><circle r="8" cx="699" cy="729" stroke-width="2" stroke="hsl(160, 50%, 50%)" fill="none" opacity="0.58"></circle><circle r="6.5" cx="188" cy="681" stroke-width="2" stroke="hsl(71, 50%, 50%)" fill="none" opacity="0.14"></circle><circle r="6" cx="225" cy="398" stroke-width="2" stroke="hsl(49, 50%, 50%)" fill="none" opacity="0.10"></circle><circle r="8.5" cx="435" cy="329" stroke-width="2" stroke="hsl(172, 50%, 50%)" fill="none" opacity="0.14"></circle><circle r="15.5" cx="508" cy="25" stroke-width="2" stroke="hsl(278, 50%, 50%)" fill="none" opacity="0.62"></circle><circle r="7.5" cx="320" cy="590" stroke-width="2" stroke="hsl(61, 50%, 50%)" fill="none" opacity="0.22"></circle><circle r="7.5" cx="328" cy="471" stroke-width="2" stroke="hsl(72, 50%, 50%)" fill="none" opacity="0.39"></circle><circle r="12" cx="617" cy="244" stroke-width="2" stroke="hsl(171, 50%, 50%)" fill="none" opacity="0.66"></circle><circle r="8" cx="568" cy="317" stroke-width="2" stroke="hsl(186, 50%, 50%)" fill="none" opacity="0.85"></circle><circle r="8" cx="451" cy="582" stroke-width="2" stroke="hsl(188, 50%, 50%)" fill="none" opacity="0.71"></circle><circle r="7" cx="171" cy="317" stroke-width="2" stroke="hsl(97, 50%, 50%)" fill="none" opacity="0.32"></circle><circle r="10.5" cx="100" cy="67" stroke-width="2" stroke="hsl(269, 50%, 50%)" fill="none" opacity="0.16"></circle><circle r="8.5" cx="677" cy="551" stroke-width="2" stroke="hsl(161, 50%, 50%)" fill="none" opacity="0.56"></circle><circle r="9" cx="409" cy="297" stroke-width="2" stroke="hsl(151, 50%, 50%)" fill="none" opacity="0.30"></circle><circle r="9" cx="723" cy="680" stroke-width="2" stroke="hsl(159, 50%, 50%)" fill="none" opacity="0.74"></circle><circle r="8" cx="677" cy="697" stroke-width="2" stroke="hsl(161, 50%, 50%)" fill="none" opacity="0.31"></circle><circle r="6" cx="355" cy="319" stroke-width="2" stroke="hsl(98, 50%, 50%)" fill="none" opacity="0.27"></circle><circle r="7" cx="289" cy="150" stroke-width="2" stroke="hsl(72, 50%, 50%)" fill="none" opacity="0.37"></circle><circle r="7.5" cx="714" cy="266" stroke-width="2" stroke="hsl(159, 50%, 50%)" fill="none" opacity="0.85"></circle><circle r="9.5" cx="402" cy="466" stroke-width="2" stroke="hsl(151, 50%, 50%)" fill="none" opacity="0.25"></circle><circle r="9" cx="661" cy="25" stroke-width="2" stroke="hsl(138, 50%, 50%)" fill="none" opacity="0.98"></circle><circle r="6" cx="354" cy="401" stroke-width="2" stroke="hsl(98, 50%, 50%)" fill="none" opacity="0.80"></circle><circle r="15" cx="215" cy="65" stroke-width="2" stroke="hsl(226, 50%, 50%)" fill="none" opacity="0.23"></circle><circle r="10" cx="82" cy="702" stroke-width="2" stroke="hsl(181, 50%, 50%)" fill="none" opacity="0.56"></circle><circle r="14" cx="100" cy="22" stroke-width="2" stroke="hsl(281, 50%, 50%)" fill="none" opacity="0.30"></circle><circle r="13" cx="564" cy="590" stroke-width="2" stroke="hsl(186, 50%, 50%)" fill="none" opacity="0.29"></circle><circle r="9.5" cx="556" cy="429" stroke-width="2" stroke="hsl(190, 50%, 50%)" fill="none" opacity="0.84"></circle><circle r="7.5" cx="452" cy="390" stroke-width="2" stroke="hsl(188, 50%, 50%)" fill="none" opacity="0.28"></circle><circle r="7.5" cx="784" cy="256" stroke-width="2" stroke="hsl(158, 50%, 50%)" fill="none" opacity="0.44"></circle><circle r="9" cx="719" cy="162" stroke-width="2" stroke="hsl(114, 50%, 50%)" fill="none" opacity="0.58"></circle><circle r="5.5" cx="201" cy="371" stroke-width="2" stroke="hsl(59, 50%, 50%)" fill="none" opacity="0.90"></circle><circle r="5" cx="294" cy="458" stroke-width="2" stroke="hsl(43, 50%, 50%)" fill="none" opacity="0.16"></circle><circle r="8" cx="768" cy="644" stroke-width="2" stroke="hsl(158, 50%, 50%)" fill="none" opacity="0.42"></circle><circle r="11" cx="613" cy="609" stroke-width="2" stroke="hsl(171, 50%, 50%)" fill="none" opacity="0.34"></circle><circle r="10.5" cx="778" cy="472" stroke-width="2" stroke="hsl(158, 50%, 50%)" fill="none" opacity="0.42"></circle><circle r="9" cx="145" cy="551" stroke-width="2" stroke="hsl(126, 50%, 50%)" fill="none" opacity="1.00"></circle><circle r="6.5" cx="645" cy="702" stroke-width="2" stroke="hsl(166, 50%, 50%)" fill="none" opacity="0.92"></circle><circle r="6.5" cx="735" cy="713" stroke-width="2" stroke="hsl(158, 50%, 50%)" fill="none" opacity="0.61"></circle><circle r="6" cx="199" cy="622" stroke-width="2" stroke="hsl(71, 50%, 50%)" fill="none" opacity="0.54"></circle><circle r="9.5" cx="563" cy="690" stroke-width="2" stroke="hsl(186, 50%, 50%)" fill="none" opacity="0.16"></circle><circle r="8" cx="315" cy="187" stroke-width="2" stroke="hsl(66, 50%, 50%)" fill="none" opacity="0.41"></circle><circle r="10" cx="580" cy="650" stroke-width="2" stroke="hsl(182, 50%, 50%)" fill="none" opacity="0.62"></circle><circle r="7.5" cx="544" cy="218" stroke-width="2" stroke="hsl(194, 50%, 50%)" fill="none" opacity="0.37"></circle></svg>